<svg xmlns="http://www.w3.org/2000/svg" width="48" height="48" viewBox="0 0 12.7 12.7" id="credit-card"><path fill="#59a9e6" d="M 3.8984375 10.001953 C 3.3866423 10.05313 2.9953647 10.4837 2.9960938 10.998047 L 2.9960938 36.998047 C 2.993958 37.553389 3.4466114 38.004089 4.0019531 38.001953 L 44.003906 38.001953 C 44.556364 37.999999 45.002124 37.550503 45 36.998047 L 45 10.998047 C 44.998054 10.448472 44.55348 10.003897 44.003906 10.001953 L 4.0019531 10.001953 C 3.9675216 10.000172 3.9328645 10.000172 3.8984375 10.001953 z " transform="scale(.26458)"></path><path fill="#3c99e1" d="M 37.576172 10.001953 A 30.000008 30.000003 0 0 1 38 15 A 30.000008 30.000003 0 0 1 27.214844 38.001953 L 44.003906 38.001953 C 44.556364 37.999999 45.002124 37.550503 45 36.998047 L 45 10.998047 C 44.998054 10.448472 44.55348 10.003897 44.003906 10.001953 L 37.576172 10.001953 z " transform="scale(.26458)"></path><path fill="#1d7fcb" d="m 0.79375,3.96875 h 11.1125 l 0,1.5875 H 0.79375033 Z"></path><path fill="#1c76bd" d="M 38 15 A 30.000008 30.000003 0 0 1 37.384766 21 L 44.001953 21 L 44.001953 19 L 44 19 L 44 17 L 44.001953 17 L 44.001953 15 L 38 15 z " transform="scale(.26458)"></path><path fill="#ffa733" d="M 28.998047 24 C 28.445591 24.001954 27.99983 24.451451 28.001953 25.003906 L 28.001953 33.005859 C 28.003897 33.555434 28.448472 34.000009 28.998047 34.001953 L 39.001953 34.001953 C 39.55153 34.000009 39.996104 33.555434 39.998047 33.005859 L 39.998047 25.003906 C 40.000171 24.451451 39.55441 24.001954 39.001953 24 L 28.998047 24 z " transform="scale(.26458)"></path><path fill="#ff9811" d="M 7.4083333,7.4084636 V 7.9377604 H 10.583333 V 7.4084636 Z" color="#000" font-family="sans-serif" font-weight="400" overflow="visible" style="line-height:normal;font-variant-ligatures:normal;font-variant-position:normal;font-variant-caps:normal;font-variant-numeric:normal;font-variant-alternates:normal;font-feature-settings:normal;text-indent:0;text-align:start;text-decoration-line:none;text-decoration-style:solid;text-decoration-color:#000;text-transform:none;text-orientation:mixed;shape-padding:0;isolation:auto;mix-blend-mode:normal"></path><path fill="#ff9811" d="M 36.597656 24 A 30.000008 30.000003 0 0 1 31.162109 34.001953 L 39.001953 34.001953 C 39.55153 34.000009 39.996104 33.555434 39.998047 33.005859 L 39.998047 25.003906 C 40.000171 24.451451 39.55441 24.001954 39.001953 24 L 36.597656 24 z " transform="scale(.26458)"></path><path fill="#f08800" d="m 35.00586,28 c -0.323059,0.680195 -0.683332,1.347986 -1.056641,2.001953 h 6.048828 V 28 Z" transform="scale(.26458)"></path></svg>